<?xml version="1.0" encoding="UTF-8"?>
<svg version="1.1" xmlns="http://www.w3.org/2000/svg" width="1254" height="1254">
<path d="M0 0 C413.82 0 827.64 0 1254 0 C1254 413.82 1254 827.64 1254 1254 C840.18 1254 426.36 1254 0 1254 C0 840.18 0 426.36 0 0 Z " fill="#FCFCFC" transform="translate(0,0)"/>
<path d="M0 0 C5.10695736 1.22064442 8.31180722 5.25687247 11.84799767 8.92607307 C13.18150513 10.25519974 13.18150513 10.25519974 14.54195213 11.61117744 C16.96785403 14.03804834 19.37205912 16.48314289 21.76860404 18.9388001 C24.28825975 21.51120611 26.83322477 24.05833078 29.37541771 26.60843086 C33.64253799 30.89575729 37.89310052 35.19891413 42.13217735 39.5139637 C48.09378661 45.58239659 54.0833302 51.62263049 60.07942808 57.65696251 C68.56898448 66.20359193 77.04446814 74.76420154 85.49252892 83.35185432 C86.3170858 84.18695534 87.14164268 85.02205635 87.99118614 85.88246346 C91.86344367 89.82710389 95.59329045 93.82051071 99.14966965 98.0516367 C101.13682215 100.35892931 103.2967163 102.46697249 105.47617149 104.59184456 C106.50405179 105.61503128 107.53061701 106.63954015 108.55614281 107.66508675 C109.71705133 108.82298014 110.87797658 109.98085678 112.03891563 111.13871956 C118.52664334 117.61011415 125.01182908 124.08404999 131.495574 130.55943489 C135.4126726 134.47130333 139.33070567 138.3822265 143.2508297 142.29106331 C147.05186364 146.08122651 150.85044428 149.87383258 154.64734268 153.6681385 C156.09172483 155.11067642 157.53698524 156.55233552 158.98314667 157.99308968 C161.00537935 160.00805461 163.02445193 162.0261364 165.04282188 164.04496956 C165.6377343 164.6362867 166.23264671 165.22760384 166.84558678 165.83683968 C169.94718332 168.94613781 172.7757503 172.11871106 175.47617149 175.59184456 C178.85993172 179.09760405 182.39774024 182.44243567 185.92156029 185.80638313 C188.8057364 188.56977038 191.66590375 191.35748065 194.52524376 194.14653206 C196.03525123 195.6110976 197.55321041 197.06750862 199.0789547 198.51567268 C201.29157748 200.61889184 203.47360503 202.75009067 205.65195274 204.88871956 C206.33622841 205.52654366 207.02050407 206.16436775 207.72551537 206.82151985 C211.14621881 210.23849996 212.89605676 212.46928904 212.99008751 217.41459846 C212.75143399 221.28928019 211.81527566 223.35255281 209.10117149 226.21684456 C188.50603225 249.88318878 173.11765971 282.84067036 170.97617149 314.40434456 C170.68559477 318.51494208 169.55130877 320.70307924 166.47617149 323.59184456 C164.01964312 324.82010874 162.41873504 324.72163126 159.67094612 324.72885895 C158.13957091 324.73647076 158.13957091 324.73647076 156.57725883 324.74423635 C155.44712938 324.74473411 154.31699993 324.74523186 153.15262413 324.74574471 C151.95866783 324.75012696 150.76471154 324.75450921 149.53457475 324.75902426 C146.21000419 324.77010611 142.8854808 324.77664204 139.56089854 324.78120542 C135.97931701 324.78715521 132.39775289 324.7987666 128.81618309 324.80949593 C120.16137749 324.83403406 111.50656612 324.84864906 102.85173643 324.86155599 C100.40805008 324.86526687 97.9643643 324.86924018 95.52067852 324.87330866 C80.35226252 324.89854388 65.18384565 324.92060139 50.01541328 324.9330368 C46.50086781 324.9359666 42.98632237 324.93892825 39.47177696 324.94194221 C38.5982317 324.94268827 37.72468644 324.94343432 36.82467011 324.94420297 C22.67032956 324.95685952 8.51611455 324.99008573 -5.63816729 325.03174405 C-20.16343983 325.07414451 -34.68864807 325.09772964 -49.21398234 325.10295737 C-57.37213167 325.10637362 -65.53008481 325.11815383 -73.68817329 325.1510601 C-80.63537549 325.1790359 -87.58234131 325.19007091 -94.52959546 325.17886464 C-98.07475808 325.17367155 -101.6194255 325.17660586 -105.16451645 325.20133018 C-109.00732866 325.22790736 -112.8494628 325.21578423 -116.69234657 325.19984627 C-117.81355314 325.21372836 -118.9347597 325.22761044 -120.08994222 325.2419132 C-128.50392601 325.15566476 -128.50392601 325.15566476 -132.20079613 322.24134445 C-138.40476348 315.16550212 -135.85810751 301.31143723 -135.33779335 292.40873909 C-133.11298479 262.24468493 -127.73651707 231.68922118 -119.52382851 202.59184456 C-119.23959023 201.55978889 -118.95535194 200.52773323 -118.66250038 199.46440315 C-108.12088605 161.37912157 -93.29497682 124.82588349 -73.52382851 90.59184456 C-73.01674355 89.70029671 -72.50965858 88.80874886 -71.98720741 87.8901844 C-55.78392356 59.43231612 -36.70724339 32.84902744 -14.50429726 8.75981331 C-13.28141464 7.42115482 -12.08880221 6.05318917 -10.94960976 4.64262581 C-7.55293898 0.6503744 -5.00898379 -0.16023797 0 0 Z " fill="#5F19EB" transform="translate(284.5238285064697,284.4081554412842)"/>
<path d="M0 0 C3.14549686 0.74346101 4.68462715 2.06258649 6.77453613 4.49328613 C7.43840332 5.23578613 8.10227051 5.97828613 8.78625488 6.74328613 C9.5455127 7.65078613 10.30477051 8.55828613 11.08703613 9.49328613 C12.20334883 10.76863235 13.32204147 12.04189751 14.44250488 13.31359863 C25.40346182 25.83789484 35.59365076 38.82316743 45.08703613 52.49328613 C45.58944824 53.2159668 46.09186035 53.93864746 46.60949707 54.68322754 C97.46097851 128.31365821 129.92858347 222.40318029 130.08703613 315.49328613 C128.36988758 319.19621691 126.53093168 321.33575519 123.08703613 323.49328613 C120.71727091 323.87278563 120.71727091 323.87278563 118.03292179 323.87918949 C117.00740619 323.88886283 115.98189058 323.89853617 114.92529875 323.90850264 C113.80031286 323.90385683 112.67532698 323.89921103 111.51625061 323.89442444 C110.3198799 323.90122111 109.12350919 323.90801778 107.89088482 323.91502041 C104.56875295 323.93074508 101.24710754 323.93297209 97.92497289 323.92943728 C94.34273806 323.92882563 90.76057618 323.94537781 87.17837524 323.95960999 C80.16005936 323.98453856 73.14181907 323.99277487 66.12346262 323.99444712 C60.41992805 323.99587203 54.71641845 324.00203338 49.01289177 324.011549 C32.84794418 324.03796999 16.68305637 324.05180674 0.51808704 324.04955757 C-0.35352744 324.04943771 -1.22514191 324.04931784 -2.12316895 324.04919434 C-3.4321838 324.04901037 -3.4321838 324.04901037 -4.7676434 324.04882269 C-18.91610729 324.04760289 -33.06433183 324.07632155 -47.21272647 324.11860944 C-61.73468371 324.16167201 -76.25652413 324.18242164 -90.77854687 324.17982811 C-98.93385714 324.17883127 -107.0889164 324.18711279 -115.24416924 324.21936226 C-122.18664385 324.24663969 -129.12875368 324.25323461 -136.0712586 324.23283399 C-139.61435247 324.22301892 -143.15674597 324.22293479 -146.69977379 324.24889374 C-150.53857426 324.2767309 -154.37634485 324.25821208 -158.2151947 324.23500061 C-159.33794987 324.2504313 -160.46070503 324.26586199 -161.61748308 324.28176028 C-168.95978032 324.18323399 -168.95978032 324.18323399 -171.71542084 322.18860424 C-174.15186324 319.3703817 -175.53208753 316.71515638 -175.84655762 313.01672363 C-175.93445557 312.19148193 -176.02235352 311.36624023 -176.11291504 310.51599121 C-176.19130615 309.64224854 -176.26969727 308.76850586 -176.35046387 307.86828613 C-179.80324477 278.61563012 -193.20850974 250.9871949 -211.24890137 227.94641113 C-211.69975098 227.36182129 -212.15060059 226.77723145 -212.6151123 226.17492676 C-213.84440314 224.58212102 -215.08538314 222.9983567 -216.32702637 221.41516113 C-218.30696189 217.76739815 -217.99600314 216.44015511 -216.91296387 212.49328613 C-215.16638184 210.19494629 -215.16638184 210.19494629 -212.90515137 208.03234863 C-212.08272949 207.23055176 -211.26030762 206.42875488 -210.41296387 205.60266113 C-209.54671387 204.78281738 -208.68046387 203.96297363 -207.78796387 203.11828613 C-206.09549432 201.48792556 -204.40535657 199.85514063 -202.71765137 198.21984863 C-201.96467773 197.50393555 -201.2117041 196.78802246 -200.43591309 196.05041504 C-198.42978338 194.01710726 -196.57400295 191.96526586 -194.71682739 189.80111694 C-191.14343511 185.70299731 -187.3870787 181.8389047 -183.52819824 178.01086426 C-182.47551506 176.96037148 -182.47551506 176.96037148 -181.40156555 175.88865662 C-179.89133298 174.3822026 -178.37994727 172.87690387 -176.86750793 171.37266541 C-174.46825803 168.9862866 -172.07223999 166.59670397 -169.67700195 164.20629883 C-163.73011615 158.27271739 -157.77778241 152.3446108 -151.82562256 146.4163208 C-146.78605522 141.39654312 -141.74858049 136.37468281 -136.71382141 131.3500824 C-134.36343433 129.00613543 -132.01003516 126.66524235 -129.65649414 124.32446289 C-128.2034233 122.87502758 -126.75049436 121.42544999 -125.29772949 119.97570801 C-124.65128983 119.33443466 -124.00485016 118.69316132 -123.33882141 118.03245544 C-119.57601759 114.27008383 -116.02814943 110.38147506 -112.54949188 106.35565948 C-110.28527511 103.77897461 -107.88814684 101.35645504 -105.45593262 98.93859863 C-104.95896881 98.44309509 -104.462005 97.94759155 -103.94998169 97.43707275 C-102.88665633 96.37750879 -101.82217932 95.31909945 -100.75662231 94.26177979 C-99.06303525 92.58114374 -97.3727561 90.89723984 -95.68322754 89.21252441 C-91.48935369 85.03190602 -87.29000987 80.85679634 -83.09082031 76.68151855 C-79.53088556 73.14142896 -75.97308566 69.59921891 -72.41799927 66.05426025 C-70.76563855 64.40830507 -69.11025922 62.76542968 -67.45471191 61.12268066 C-62.69274035 56.38392436 -58.0407794 51.60904934 -53.6711731 46.50085449 C-47.63341262 39.60678484 -41.07276172 33.15602314 -34.64550304 26.6255722 C-32.10948467 24.04840535 -29.58431922 21.46227501 -27.08166504 18.85266113 C-24.63830822 16.30533952 -22.17100653 13.78365224 -19.68517494 11.27778625 C-18.29810274 9.86720904 -16.93613736 8.43208258 -15.57487488 6.99658203 C-10.52652757 1.96278925 -7.28886883 -0.58733451 0 0 Z " fill="#FD7E07" transform="translate(972.9129638671875,284.5067138671875)"/>
<path d="M0 0 C1.52615012 -0.00761181 1.52615012 -0.00761181 3.08313155 -0.0153774 C4.7724893 -0.01612404 4.7724893 -0.01612404 6.49597549 -0.01688576 C7.68584824 -0.02126801 8.87572098 -0.02565027 10.10165048 -0.03016531 C13.4148195 -0.04124708 16.7279412 -0.04778307 20.04112196 -0.05234647 C23.61043348 -0.05829631 27.17972751 -0.06990768 30.74902725 -0.08063698 C39.37416997 -0.10517502 47.99931848 -0.1197901 56.62448537 -0.13269705 C59.05980268 -0.13640793 61.4951194 -0.14038124 63.93043613 -0.14444971 C79.04695125 -0.16968494 94.16346724 -0.19174242 109.27999878 -0.20417786 C112.7825127 -0.20710765 116.28502659 -0.2100693 119.78754044 -0.21308327 C120.65809508 -0.21382932 121.52864973 -0.21457537 122.42558482 -0.21534403 C136.53142663 -0.22800054 150.63714247 -0.26122671 164.74292538 -0.3028851 C179.21847737 -0.34528578 193.69396485 -0.36887072 208.16957879 -0.37409842 C216.29978273 -0.37751465 224.42978982 -0.38929458 232.55993271 -0.42220116 C239.48334654 -0.45017726 246.40652319 -0.46121183 253.32998917 -0.4500057 C256.86300084 -0.44481268 260.3955156 -0.44774641 263.92845535 -0.47247124 C267.75813106 -0.49904919 271.58712641 -0.48692503 275.41687393 -0.47098732 C276.53418955 -0.48486941 277.65150516 -0.49875149 278.80267882 -0.51305425 C287.18661265 -0.42682259 287.18661265 -0.42682259 290.88498688 2.5500145 C294.06619278 6.08908786 294.37274848 8.1557685 294.80585098 12.84990501 C295.7328454 22.88521914 297.64056025 32.40402959 300.210392 42.13701439 C300.54683731 43.50213158 300.54683731 43.50213158 300.8900795 44.89482689 C302.79845205 52.03355386 306.04632531 58.60022011 309.2753334 65.21562767 C310.17666436 67.06770981 311.0600232 68.92746196 311.94086075 70.78935814 C317.43278308 82.16278998 324.18997909 94.11660148 333.210392 103.13701439 C333.35154361 105.8076029 333.25286307 108.46133677 333.210392 111.13701439 C332.550392 111.13701439 331.890392 111.13701439 331.210392 111.13701439 C330.98852061 111.68406406 330.76664923 112.23111374 330.53805447 112.79474068 C328.7968291 115.86662567 326.45949102 118.15368506 323.96779251 120.61339378 C323.42791016 121.15427942 322.88802781 121.69516506 322.33178538 122.25244117 C320.52104998 124.06412933 318.70326274 125.86857171 316.88544083 127.6731472 C315.5857387 128.97064805 314.28648405 130.26859727 312.9876442 131.56696129 C310.18861056 134.36306022 307.38644723 137.15597108 304.58183098 139.94647026 C300.14304611 144.36298623 295.7113623 148.78658159 291.2806282 153.2111721 C284.266287 160.2141259 277.2472926 167.21239447 270.22626179 174.20864081 C257.66844126 186.72219777 245.11609442 199.24123908 232.56905383 211.76560473 C228.16805785 216.15821672 223.76426865 220.54800319 219.35817969 224.93550634 C216.60955998 227.67343656 213.86300811 230.41343432 211.11695099 233.15393448 C209.8484819 234.41895072 208.57914282 235.68309533 207.30884361 236.9462738 C201.59671256 242.62710544 195.92520408 248.29097067 190.69361019 254.42543602 C188.27194822 257.21994344 185.66600842 259.82095103 183.04730606 262.42949486 C182.1898101 263.28961929 182.1898101 263.28961929 181.314991 264.16711998 C179.45447966 266.03197674 177.59040157 267.89321802 175.726017 269.75420189 C174.42026807 271.0606255 173.11466753 272.36719743 171.80920792 273.67391014 C169.0876227 276.39696201 166.36425611 279.118216 163.63959122 281.83818626 C160.1469413 285.32511103 156.65883854 288.81654473 153.17203522 292.30931473 C150.48357882 295.0013805 147.79275048 297.69106524 145.10119247 300.38002968 C143.81344325 301.66711215 142.52643556 302.95493697 141.24018478 304.24351692 C139.44782991 306.03840754 137.65230766 307.83006814 135.85589981 309.62090111 C135.32598938 310.15283577 134.79607895 310.68477043 134.25011063 311.23282433 C129.95355765 315.50467408 127.52730849 317.34266162 121.3432045 317.50029564 C115.43935809 316.49469543 111.78010661 311.85671692 107.960392 307.63701439 C107.38756485 307.01117455 106.8147377 306.3853347 106.22455215 305.74053001 C101.34455359 300.36910943 96.71112675 294.83004905 92.210392 289.13701439 C91.36439043 288.08334577 90.51802002 287.02997322 89.6713295 285.97685814 C45.39421172 230.61229139 15.7518164 166.91284054 -0.789608 98.13701439 C-1.02663437 97.15958275 -1.26366074 96.18215111 -1.50786972 95.17510033 C-6.99841037 72.23318388 -10.36044855 48.68411776 -11.789608 25.13701439 C-11.86767685 23.85552513 -11.86767685 23.85552513 -11.94732285 22.5481472 C-12.07788162 20.07742837 -12.16289416 17.61026671 -12.227108 15.13701439 C-12.26159042 14.41304466 -12.29607285 13.68907494 -12.33160019 12.94316673 C-12.3629387 9.06180052 -11.78659461 6.66935807 -9.38726425 3.69951439 C-5.99177323 0.34997738 -4.61303931 0.01217573 0 0 Z " fill="#066DF6" transform="translate(160.78960800170898,624.8629856109619)"/>
<path d="M0 0 C7.68963261 1.84551183 14.08926787 10.55722494 19.56591797 16.01010132 C20.78286079 17.21623736 20.78286079 17.21623736 22.02438831 18.44673979 C24.72433571 21.12408528 27.42080382 23.80490567 30.1171875 26.48583984 C31.56372469 27.92196375 33.01062339 29.3577227 34.45756215 30.793442 C52.61147073 48.80710477 70.72847729 66.8580549 88.83888245 84.91544151 C91.19119387 87.26074495 93.54356479 89.60598868 95.89599609 91.95117188 C96.77293674 92.82541958 96.77293674 92.82541958 97.66759336 93.71732886 C107.15590119 103.17551637 116.66142789 112.61620942 126.17374945 122.05023877 C135.94952592 131.74621855 145.70823627 141.45912126 155.45087051 151.18840373 C160.91775676 156.64688265 166.39207009 162.09744312 171.88592529 167.52878952 C176.55963193 172.14934344 181.21789234 176.78478277 185.85655445 181.44052885 C188.22321698 183.81494576 190.59854504 186.17851463 192.98970985 188.52840233 C195.58105403 191.07730846 198.14324294 193.65235268 200.69995117 196.2359314 C201.46101103 196.9714578 202.22207088 197.7069842 203.00619316 198.46479928 C206.51667717 202.07079371 208.5682332 204.45050781 208.65937805 209.61318398 C208.14954781 216.48485252 204.041368 220.08974979 199.125 224.5 C198.25560791 225.28987305 198.25560791 225.28987305 197.36865234 226.09570312 C192.10674315 230.84021286 186.6620399 235.33073153 181.125 239.75 C179.98352891 240.68255908 178.84295116 241.61621236 177.703125 242.55078125 C128.03538061 283.0786503 68.82024351 311.96205217 7.125 328.75 C5.62332275 329.15943848 5.62332275 329.15943848 4.09130859 329.57714844 C-26.96828113 337.88229076 -60.52471245 343.7236994 -92.6875 344.1875 C-94.12089722 344.22109619 -94.12089722 344.22109619 -95.58325195 344.25537109 C-99.77310148 344.24090101 -102.22242365 344.13511315 -105.88671875 341.97265625 C-109.12729775 338.35008365 -110.12436879 335.65328054 -110.13226891 330.80520725 C-110.1387178 329.80407542 -110.14516669 328.80294358 -110.151811 327.77147442 C-110.1487138 326.67372517 -110.1456166 325.57597592 -110.14242554 324.44496155 C-110.14695665 323.2771757 -110.15148776 322.10938986 -110.15615618 320.90621656 C-110.16663781 317.66401439 -110.16812408 314.42195145 -110.16576743 311.17973769 C-110.16535963 307.68341263 -110.17639484 304.18712078 -110.18588257 300.69081116 C-110.20250071 293.84094591 -110.20799246 286.99111508 -110.20910732 280.14123137 C-110.2100573 274.57452582 -110.21416508 269.00783164 -110.22050858 263.44112968 C-110.23812231 247.6635517 -110.24734711 231.88600094 -110.24584763 216.10841305 C-110.24576772 215.25770754 -110.2456878 214.40700204 -110.24560547 213.53051758 C-110.24552371 212.67877531 -110.24544195 211.82703305 -110.24535771 210.94948041 C-110.24454451 197.14056518 -110.26369026 183.33175895 -110.2918822 169.52287526 C-110.32059143 155.34897115 -110.33442362 141.17512024 -110.33269465 127.00118631 C-110.33203012 119.04155178 -110.33754987 111.08203155 -110.35905075 103.12242317 C-110.37723668 96.34652928 -110.38163123 89.57080151 -110.3680319 82.79489381 C-110.36148936 79.33700026 -110.36143086 75.87942566 -110.3787384 72.42156219 C-110.39408966 68.67476075 -110.38494871 64.92880431 -110.36947632 61.18202209 C-110.37976344 60.08650357 -110.39005057 58.99098504 -110.40064943 57.86226898 C-110.3332587 50.50787211 -110.3332587 50.50787211 -107.96909523 46.59799862 C-104.55561457 43.58566783 -102.03820443 43.48914803 -97.5625 43 C-69.63870967 39.5448009 -40.53707854 29.69361013 -17.875 12.75 C-16.63363281 11.821875 -16.63363281 11.821875 -15.3671875 10.875 C-12.56662462 8.73067463 -9.79225786 6.59669957 -7.19921875 4.203125 C-4.85817288 2.04960476 -3.09874339 0.80836784 0 0 Z " fill="#38D758" transform="translate(743.875,746.25)"/>
<path d="M0 0 C2.34375 1.6171875 2.34375 1.6171875 4.5 3.875 C27.21662882 25.73504402 63.10743995 40.51661353 94.44628906 42.10498047 C98.61133677 42.41438997 101.58681799 43.4189431 104.74055254 46.20727444 C107.46719681 50.08844063 106.81316259 54.97752809 106.75517273 59.53918457 C106.7681543 61.31052096 106.7681543 61.31052096 106.78139812 63.11764193 C106.79925625 66.39221528 106.7901936 69.6654394 106.76968896 72.9399569 C106.75406209 76.47243691 106.77297816 80.00475491 106.78749084 83.53721619 C106.81032703 90.45592456 106.80083336 97.37422916 106.77998998 104.29292953 C106.76371155 109.91541402 106.75950503 115.53778824 106.76395607 121.16029358 C106.76458675 121.96025191 106.76521742 122.76021025 106.76586721 123.58440974 C106.76721325 125.20946645 106.76859282 126.83452312 106.77000556 128.45957977 C106.78194503 143.7008675 106.75786945 158.94193378 106.72098748 174.18317109 C106.6900941 187.2633058 106.68772311 200.34318553 106.70678711 213.42333984 C106.72889538 228.60973356 106.73504692 243.79598431 106.71446449 258.98238516 C106.71230153 260.60149223 106.71015243 262.22059931 106.70801735 263.83970642 C106.70695098 264.63635579 106.70588462 265.43300516 106.70478594 266.25379542 C106.69831415 271.87007475 106.70308484 277.48628057 106.71204185 283.10255432 C106.72257371 289.94619726 106.71508903 296.78954111 106.68458607 303.63312876 C106.66944924 307.12549531 106.66230373 310.6173896 106.67677689 314.10976982 C106.68815248 317.89394715 106.66890257 321.67674818 106.64164734 325.46081543 C106.65211883 326.56732468 106.66259032 327.67383393 106.67337912 328.81387377 C106.56202428 337.07917402 106.56202428 337.07917402 103.52239704 340.15869904 C102.69000602 340.76632835 101.85761499 341.37395767 101 342 C100.67 342.33 100.34 342.66 100 343 C82.62877825 344.3407796 65.16939287 342.49879719 48 340 C46.8351709 339.83371094 45.6703418 339.66742187 44.47021484 339.49609375 C-47.94014572 326.01464172 -136.80255517 285.15382492 -212 216 C-212.2734375 214.109375 -212.2734375 214.109375 -212.375 211.75 C-212.42398437 210.98171875 -212.47296875 210.2134375 -212.5234375 209.421875 C-211.77928025 205.97875938 -209.46530873 204.3630607 -207 202 C-205.59085234 200.60097407 -204.18438034 199.19925077 -202.77978516 197.7956543 C-201.98190582 197.00100266 -201.18402649 196.20635101 -200.36196899 195.38761902 C-197.21146081 192.24875115 -194.06283468 189.10800015 -190.91481972 185.96663189 C-188.53470966 183.59173365 -186.15367297 181.21778006 -183.77050781 178.84594727 C-181.00346235 176.09109669 -178.23971678 173.33297156 -175.4765625 170.57421875 C-174.63155182 169.73436935 -173.78654114 168.89451996 -172.91592407 168.02922058 C-172.11174042 167.22511246 -171.30755676 166.42100433 -170.47900391 165.5925293 C-169.78126862 164.89701462 -169.08353333 164.20149994 -168.36465454 163.48490906 C-166.44233529 161.46483025 -164.61945393 159.41350244 -162.80209351 157.30110168 C-158.64054529 152.51648416 -154.18352854 148.05831203 -149.6875 143.58984375 C-148.29585089 142.20043614 -146.90420191 140.8110284 -145.51255798 139.4216156 C-144.03113357 137.94354034 -142.54846776 136.46672097 -141.06542969 134.99026489 C-137.96009519 131.89856949 -134.85868286 128.80295899 -131.7578125 125.70678711 C-124.61628615 118.57725079 -117.46973276 111.45276054 -110.32312012 104.32832336 C-103.76767359 97.79311338 -97.21332191 91.25681497 -90.6630249 84.71644306 C-87.5871708 81.64553862 -84.50890347 78.57708109 -81.42869568 75.51054382 C-79.97145039 74.05899471 -78.51538071 72.6062783 -77.05981445 71.15304565 C-75.29464721 69.39072153 -73.52770524 67.63017221 -71.75854492 65.87185669 C-67.52702841 61.64071757 -63.46586866 57.33284068 -59.56315613 52.79682922 C-57.34322884 50.24504943 -55.00015046 47.82694581 -52.63476562 45.41015625 C-52.14755539 44.91155594 -51.66034515 44.41295563 -51.15837097 43.89924622 C-46.14916161 38.78089084 -41.10936184 33.6924926 -36.06689453 28.60693359 C-33.6794866 26.19711022 -31.3022601 23.7778662 -28.93310547 21.35009766 C-26.05512786 18.40111195 -23.16038736 15.46961385 -20.25285339 12.54977417 C-19.15283454 11.43936528 -18.05883093 10.32296276 -16.97114563 9.20046997 C-15.45183653 7.63501106 -13.91192457 6.09303336 -12.36523438 4.5546875 C-11.49588257 3.67280762 -10.62653076 2.79092773 -9.73083496 1.88232422 C-6.24912746 -0.51756535 -4.14636686 -0.48304219 0 0 Z " fill="#01B8DF" transform="translate(512,747)"/>
<path d="M0 0 C1.19651957 -0.00865438 2.39303914 -0.01730876 3.62581688 -0.02622539 C6.94432982 -0.04408629 10.26079184 -0.03502066 13.5791589 -0.01451623 C17.15869247 0.00110967 20.7380661 -0.01780516 24.31758118 -0.03231812 C31.32886659 -0.05515576 38.3397536 -0.04565942 45.35103112 -0.02481725 C51.04930754 -0.00853833 56.74747517 -0.00433242 62.44577217 -0.00878334 C63.25654323 -0.00941402 64.06731428 -0.01004469 64.90265416 -0.01069448 C66.54969313 -0.01204053 68.19673207 -0.0134201 69.84377099 -0.01483283 C85.29205936 -0.02677285 100.74012928 -0.00269597 116.18836791 0.03418525 C129.44385774 0.06507287 142.69909594 0.06745256 155.9546051 0.04838562 C171.34573272 0.02627228 186.73671926 0.02013091 202.12785393 0.04070824 C203.76916601 0.04287119 205.41047812 0.04502028 207.05179024 0.04715538 C207.85935533 0.04822175 208.66692043 0.04928811 209.4989572 0.05038679 C215.18990739 0.0568563 220.88078499 0.05209032 226.57172966 0.04313087 C233.50793483 0.03259377 240.44384496 0.04010038 247.37999564 0.07058666 C250.9190651 0.08571336 254.45766892 0.09288211 257.99675179 0.07839584 C261.8329154 0.06297664 265.66828372 0.08629171 269.50439453 0.11352539 C270.62355473 0.1030539 271.74271494 0.09258241 272.89578909 0.08179361 C281.29439036 0.19319411 281.29439036 0.19319411 284.991395 3.10777569 C289.80382882 8.5891918 288.5386915 15.55009307 288.17262268 22.45292664 C287.97835168 25.16117479 287.75012196 27.86372231 287.50318909 30.56767273 C287.41335754 31.56194275 287.323526 32.55621277 287.23097229 33.58061218 C284.72407481 60.25408569 280.43044275 86.91292523 273.31568909 112.75517273 C273.02242737 113.85039246 272.72916565 114.94561218 272.42701721 116.07402039 C260.24406023 161.34338822 241.73691659 205.28482602 216.31568909 244.75517273 C215.64279846 245.80189148 214.96990784 246.84861023 214.27662659 247.92704773 C200.44589847 268.98618108 185.31047039 288.95526193 168.28834534 307.53642273 C166.87233605 309.12908268 165.51493536 310.77458245 164.19850159 312.45048523 C161.94277071 315.21164958 160.7941339 315.98218499 157.31568909 316.75517273 C151.8487436 317.0857261 148.17871144 316.11208688 144.04072571 312.46738529 C142.51794433 310.97938226 141.01680527 309.46903276 139.53346252 307.94171143 C138.69751714 307.113307 137.86157175 306.28490258 137.00029469 305.43139499 C134.69323257 303.13713853 132.40495442 300.82589982 130.12353063 298.50619829 C127.65552203 296.00562562 125.16438057 293.52828503 122.67602539 291.04798889 C117.80963775 286.19018833 112.96465714 281.31156307 108.12633735 276.42582459 C102.49292128 270.73908272 96.83732196 265.07462079 91.18037307 259.41130387 C81.09123274 249.30953908 71.02044057 239.18968409 60.96070862 229.05863953 C51.19370113 219.22245953 41.41692924 209.39614408 31.62770081 199.58207703 C31.02427062 198.97711045 30.42084043 198.37214388 29.79912448 197.74884499 C27.37374545 195.31735516 24.94831736 192.88591428 22.5228194 190.45454309 C11.51086436 179.41561596 0.50579651 168.36982232 -10.49681091 157.32157898 C-11.33602931 156.47890157 -11.33602931 156.47890157 -12.19220161 155.61920038 C-19.17777575 148.60448951 -26.15988178 141.58635465 -33.13635063 134.56258774 C-35.08281077 132.60307572 -37.03040103 130.64469813 -38.97902107 128.68733406 C-41.62771439 126.0257824 -44.27328031 123.36116314 -46.91795349 120.69561768 C-47.69876408 119.91226297 -48.47957466 119.12890827 -49.28404617 118.32181555 C-50.33940126 117.2560735 -50.33940126 117.2560735 -51.41607666 116.16880131 C-52.0274841 115.553437 -52.63889154 114.9380727 -53.26882648 114.304061 C-55.61189096 111.74017191 -56.26963649 109.33991961 -56.21946716 105.85673523 C-55.25052536 102.05169371 -52.47529149 99.46982084 -49.96556091 96.54032898 C-45.95342248 91.64194764 -42.85225528 86.2231315 -39.68431091 80.75517273 C-39.03591248 79.6594696 -38.38751404 78.56376648 -37.71946716 77.43486023 C-26.28084239 57.50869083 -16.92918244 32.3899703 -17.21556091 9.15751648 C-15.11498029 -0.34143266 -8.20233464 -0.10288805 0 0 Z " fill="#FDCA02" transform="translate(814.6843109130859,624.2448272705078)"/>
<path d="M0 0 C0.0515625 0.74121094 0.103125 1.48242188 0.15625 2.24609375 C1.75971966 17.13285184 9.65908288 29.54801667 16.79785156 42.43041992 C22.77914889 53.28002271 28.36793355 64.33103169 33.97387695 75.37792969 C37.8759422 83.04651935 41.87077426 90.63894129 46.0859375 98.140625 C49.89574615 104.92485639 53.46633789 111.78878031 56.90527344 118.76708984 C60.59875263 126.26152807 64.43684923 133.68384248 68.24609375 141.11987305 C69.63182864 143.82583447 71.01517315 146.53300936 72.3984375 149.24023438 C84.47331754 174.50991119 84.47331754 174.50991119 107 190 C109.32979061 190.67894375 111.66278786 191.34706181 114 192 C114.11581341 204.95193093 114.20467496 217.90373883 114.25906086 230.85608196 C114.28516251 236.87030504 114.32057192 242.88417406 114.37719727 248.89819336 C114.43149528 254.70130204 114.46141626 260.50407001 114.47438622 266.3074131 C114.48362995 268.52224912 114.50168078 270.73706633 114.52865028 272.95175743 C114.56491019 276.05247777 114.56994649 279.15178756 114.56762695 282.25268555 C114.58560333 283.16978302 114.60357971 284.08688049 114.62210083 285.0317688 C114.58560066 289.53653207 114.47030572 291.39650988 111.61785889 295.05673218 C108.8660501 297.0994326 107.32885776 297.74484475 103.96484375 298.15234375 C103.000625 298.28552002 102.03640625 298.41869629 101.04296875 298.5559082 C99.50576172 298.74479614 99.50576172 298.74479614 97.9375 298.9375 C80.65704771 301.45189995 64.68984393 306.34780304 49 314 C48.06728271 314.45197754 48.06728271 314.45197754 47.11572266 314.91308594 C38.05121543 319.36872148 29.71423493 324.67320711 21.4609375 330.484375 C20.85862305 330.90783203 20.25630859 331.33128906 19.63574219 331.76757812 C17.79998901 333.0974838 17.79998901 333.0974838 15.6015625 335.328125 C11.78729671 337.77933485 8.42133833 337.85197869 4 337 C1.06638136 335.26210017 -1.09736103 332.98129178 -3.4140625 330.5 C-4.07280365 329.830896 -4.7315448 329.16179199 -5.4102478 328.47241211 C-7.50390662 326.33520589 -9.56395847 324.16862867 -11.625 322 C-13.01617538 320.57221474 -14.40938787 319.14641136 -15.8046875 317.72265625 C-20.70409776 312.69724724 -25.58416188 307.67668559 -30.14804077 302.34204102 C-34.27520033 297.61449982 -38.67900216 293.19544506 -43.12890625 288.7734375 C-44.01601288 287.88779114 -44.90311951 287.00214478 -45.81710815 286.08966064 C-47.73169204 284.178864 -49.64714525 282.26899097 -51.56417847 280.36065674 C-54.60230507 277.33617324 -57.63650583 274.30777113 -60.67016602 271.27880859 C-67.11047006 264.84955517 -73.55500588 258.42455133 -80 252 C-86.9604818 245.06159606 -93.92020628 238.12244224 -100.87504101 231.17837715 C-103.88399158 228.17437505 -106.89535466 225.17281991 -109.90866089 222.17318726 C-112.23147632 219.85965429 -114.55100639 217.54283077 -116.87109375 215.2265625 C-117.69519745 214.40762512 -118.51930115 213.58868774 -119.36837769 212.74493408 C-123.51745558 208.59623427 -127.47914692 204.36366689 -131.3069191 199.91794777 C-134.19313554 196.64839793 -137.28935423 193.59656561 -140.38818359 190.5300293 C-141.08985657 189.83142288 -141.79152954 189.13281647 -142.51446533 188.41304016 C-144.02309817 186.91150784 -145.53285868 185.4111078 -147.04365158 183.91174889 C-149.43320837 181.53970268 -151.81910041 179.16402577 -154.20401001 176.78730774 C-160.97988677 170.03579285 -167.76149771 163.29005874 -174.54736328 156.54858398 C-178.7093201 152.41335031 -182.86644109 148.27330663 -187.02058792 144.13022804 C-188.60319875 142.55383377 -190.18770557 140.97934062 -191.77412033 139.40677452 C-193.98334499 137.21668534 -196.1864154 135.02057958 -198.38818359 132.82299805 C-199.04684418 132.17309906 -199.70550476 131.52320007 -200.38412476 130.85360718 C-200.98120239 130.25522537 -201.57828003 129.65684357 -202.19345093 129.04032898 C-202.71439016 128.52253215 -203.2353294 128.00473532 -203.77205467 127.47124767 C-205.78809978 125.05574788 -206.02660557 122.76498409 -206.375 119.6875 C-205.69003599 112.95202052 -200.44482024 109.33779896 -195.55078125 105.171875 C-193.55205786 103.47005233 -191.57456482 101.75124641 -189.60546875 100.015625 C-182.17402795 93.48180478 -174.62934299 87.21186624 -166.70410156 81.28320312 C-164.90327436 79.92716476 -163.1191203 78.551019 -161.3359375 77.171875 C-125.97202884 49.98544922 -85.60843802 28.34182432 -43.88623047 12.70947266 C-42.27506209 12.1034598 -40.67004904 11.48112433 -39.06640625 10.85546875 C-31.243379 7.86676276 -23.17965182 5.7426883 -15.1015625 3.56835938 C-11.38406636 2.56297706 -7.67781066 1.51648724 -3.96875 0.48046875 C-2 0 -2 0 0 0 Z " fill="#9B23F3" transform="translate(504,149)"/>
<path d="M0 0 C42.9102164 10.355739 84.47478939 27.70031942 122 51 C122.76892578 51.4729248 123.53785156 51.94584961 124.33007812 52.43310547 C150.04301266 68.27429389 173.76764119 86.78206501 196.47167969 106.6796875 C197.77280911 107.8037303 199.10601607 108.89046661 200.4453125 109.96875 C202.97570533 112.14058514 204.6789275 113.87667654 205.60914612 117.13119507 C205.93295354 121.38732959 205.63715762 124.05488014 203.21334839 127.65020752 C200.58147607 130.56068454 197.81470583 133.28410562 194.96484375 135.9765625 C193.92560685 136.99456005 192.88865992 138.01490008 191.85389709 139.03744507 C189.13080786 141.71685501 186.37955358 144.3653434 183.62060547 147.00775146 C180.29257846 150.20555868 176.99839845 153.43813963 173.6994791 156.66591454 C171.12776145 159.18096443 168.5515362 161.69066602 165.95896912 164.18423462 C165.01852249 165.0923288 164.07807587 166.00042297 163.10913086 166.93603516 C161.88002235 168.11656967 161.88002235 168.11656967 160.62608337 169.32095337 C158.56423866 171.42438169 156.63695429 173.54636629 154.71681213 175.77426147 C150.81345417 180.27730906 146.64845917 184.47762925 142.421875 188.67578125 C141.59328979 189.50290619 140.76470459 190.33003113 139.91101074 191.18222046 C138.12412327 192.96532303 136.33608217 194.74727015 134.54699707 196.52816772 C131.71089979 199.35142316 128.87792769 202.17779263 126.04589844 205.00512695 C119.52361788 211.5154254 112.99630703 218.02067265 106.46893311 224.52586365 C100.48078996 230.49376125 94.49374773 236.4627527 88.51076126 242.43582058 C85.25186221 245.68898157 81.98907563 248.93821284 78.72558594 252.18676758 C77.00961673 253.8991021 75.29378897 255.6115784 73.578125 257.32421875 C72.4261261 258.46846817 72.4261261 258.46846817 71.25085449 259.63583374 C67.18852504 263.69776717 63.31666222 267.85614625 59.5665741 272.20758057 C57.47312648 274.6028303 55.25833931 276.85411889 53.00195312 279.09570312 C52.08410034 280.01025269 51.16624756 280.92480225 50.22058105 281.86706543 C49.74176987 282.34175766 49.26295868 282.81644989 48.76963806 283.30552673 C47.24406023 284.81812332 45.72181914 286.33401202 44.20031738 287.85070801 C40.42383018 291.61395801 36.64186489 295.37168668 32.86004639 299.12957764 C29.65240132 302.31735668 26.44690705 305.50727042 23.24412537 308.69993591 C21.75796311 310.17970556 20.26878004 311.65638565 18.77941895 313.13293457 C14.13750354 317.75814438 9.61862517 322.42102405 5.36384583 327.40663147 C3.71603352 329.33175543 1.98325611 331.15015493 0.1875 332.9375 C-0.37582031 333.50339844 -0.93914062 334.06929688 -1.51953125 334.65234375 C-4.22244519 337.11277992 -6.915158 337.64592963 -10.5546875 337.59375 C-14.98437286 336.51817145 -18.1150595 333.43237426 -21.62109375 330.6328125 C-33.21507748 321.42190358 -46.51003032 314.92452427 -60 309 C-61.14210938 308.4946875 -62.28421875 307.989375 -63.4609375 307.46875 C-73.90075587 303.15607944 -85.01744971 300.73914605 -96.19921875 299.296875 C-97.48094971 299.12502686 -97.48094971 299.12502686 -98.78857422 298.94970703 C-100.42915799 298.73864334 -102.07295357 298.55079059 -103.71923828 298.39013672 C-104.84241455 298.24729248 -104.84241455 298.24729248 -105.98828125 298.1015625 C-106.64352783 298.03275879 -107.29877441 297.96395508 -107.97387695 297.89306641 C-111.2647163 296.44254341 -113.2621389 294.06450436 -115 291 C-115.69441671 287.7345463 -115.63379204 284.55883855 -115.56762695 281.23095703 C-115.56835709 280.26447739 -115.56908722 279.29799774 -115.56983948 278.30223083 C-115.56636695 275.12017935 -115.52752043 271.93960702 -115.48828125 268.7578125 C-115.47895197 266.54679158 -115.4718364 264.3357603 -115.46684265 262.12472534 C-115.44778217 256.31464944 -115.39868865 250.50520178 -115.34332275 244.69537354 C-115.29211032 238.76314797 -115.26932429 232.83082056 -115.24414062 226.8984375 C-115.19056973 215.26534948 -115.10526772 203.63272705 -115 192 C-114.12972168 191.74895508 -113.25944336 191.49791016 -112.36279297 191.23925781 C-111.20924316 190.89733398 -110.05569336 190.55541016 -108.8671875 190.203125 C-107.72878418 189.86958008 -106.59038086 189.53603516 -105.41748047 189.19238281 C-93.36861776 184.98845043 -85.46151727 176.71845647 -79.98339844 165.44311523 C-79.55575195 164.53376221 -79.12810547 163.62440918 -78.6875 162.6875 C-77.72957012 160.71271343 -76.76990554 158.73876749 -75.80859375 156.765625 C-75.33534668 155.78787109 -74.86209961 154.81011719 -74.37451172 153.80273438 C-72.41346907 149.80401864 -70.34322674 145.86821597 -68.25 141.9375 C-63.94368595 133.82050592 -59.71414894 125.66506869 -55.5 117.5 C-50.96080038 108.70787178 -46.40056809 99.928011 -41.77734375 91.1796875 C-38.14903497 84.30499717 -34.57389326 77.40310384 -31 70.5 C-22.41087129 53.92216336 -22.41087129 53.92216336 -18.75 46.9375 C-18.16206665 45.81420288 -18.16206665 45.81420288 -17.56225586 44.66821289 C-15.09675751 39.98965456 -12.52355054 35.38343208 -9.90112305 30.79125977 C-4.08134762 20.55809272 -0.73158907 11.85678837 0 0 Z " fill="#FC359B" transform="translate(749,149)"/>
<path d="M0 0 C1.54996708 -0.00927263 3.09992966 -0.0193241 4.64988708 -0.03009033 C8.83797414 -0.05617796 13.02599732 -0.0691955 17.21415281 -0.07811165 C19.83599025 -0.08399655 22.45781065 -0.09221024 25.07963943 -0.10112 C33.2985069 -0.12842186 41.51733492 -0.14778103 49.73624456 -0.15552378 C59.19562025 -0.16448681 68.65441818 -0.19961021 78.11361825 -0.25752497 C85.44640689 -0.30084996 92.77903343 -0.32093701 100.11194861 -0.32360601 C104.48253724 -0.32569475 108.852581 -0.33735162 113.22303391 -0.37324524 C117.33556221 -0.40636899 121.44714059 -0.41044156 125.55975533 -0.39296722 C127.06129706 -0.39143526 128.56289165 -0.39999569 130.06430244 -0.41988373 C140.58363261 -0.55095893 148.80691522 0.98254143 156.75336266 8.36171722 C161.85449201 13.7294806 164.65540229 19.09867932 164.99462891 26.57226562 C164.47576826 38.70670102 157.5683032 49.54232387 152.05712891 60.07226562 C151.24326469 61.63863015 150.42995629 63.20528359 149.6171875 64.7722168 C148.00685852 67.8740484 146.39273084 70.97385086 144.77490234 74.07177734 C142.88363643 77.69372999 141.00305375 81.32108285 139.12744141 84.95117188 C133.85796578 95.13161484 128.4801222 105.24442573 122.91503906 115.2668457 C119.71544282 121.06490537 116.71615307 126.9457941 113.76945496 132.8747406 C110.01319789 140.43178447 106.18004289 147.94870391 102.33032227 155.45849609 C101.5235651 157.03361665 100.7182246 158.60946362 99.91430664 160.18603516 C95.6324574 168.58287449 91.29503993 176.94791824 86.74853516 185.20507812 C86.2181942 186.18776672 86.2181942 186.18776672 85.67713928 187.19030762 C81.84627628 194.05144698 77.18987857 197.85641927 69.99462891 200.75976562 C61.88518763 202.08676511 54.52045627 201.71886617 47.56323242 196.95776367 C42.07817956 192.36605989 39.08333293 187.59267368 35.99462891 181.19726562 C34.95989691 179.13715665 33.92471936 177.07727142 32.88916016 175.01757812 C32.34984863 173.92993164 31.81053711 172.84228516 31.25488281 171.72167969 C28.60596421 166.41774777 25.86613538 161.16119447 23.1317749 155.90100098 C21.53582895 152.82768439 19.94724465 149.75056734 18.35791016 146.67382812 C6.42960914 123.59439833 -5.51421279 100.52206425 -17.64379883 77.54760742 C-19.96621163 73.14457365 -22.26937622 68.73220735 -24.55615234 64.31054688 C-25.35375977 62.77140625 -25.35375977 62.77140625 -26.16748047 61.20117188 C-27.19632941 59.21434182 -28.22254046 57.22614264 -29.24560547 55.23632812 C-31.77397181 50.35847306 -34.39112912 45.64891578 -37.45141602 41.08276367 C-40.88316154 34.98911261 -40.3739776 26.09632698 -39.44287109 19.32226562 C-38.07368664 15.61710617 -36.17175394 13.14660322 -33.44287109 10.32226562 C-32.41033203 9.21044922 -32.41033203 9.21044922 -31.35693359 8.07617188 C-22.41057887 -0.72892462 -11.85578086 0.01661759 0 0 Z " fill="#FB2727" transform="translate(564.44287109375,119.677734375)"/>
<path d="M0 0 C0.33 0.99 0.66 1.98 1 3 C-0.22976563 4.12148438 -0.22976563 4.12148438 -1.484375 5.265625 C-2.57296139 6.26036773 -3.66150055 7.25516213 -4.75 8.25 C-5.55824219 8.98669922 -5.55824219 8.98669922 -6.3828125 9.73828125 C-9.3243716 12.42873164 -12.2073768 15.1531511 -15 18 C-15.66 17.67 -16.32 17.34 -17 17 C-11.39 11.39 -5.78 5.78 0 0 Z " fill="#0BB4DC" transform="translate(322,932)"/>
<path d="M0 0 C0.33 0.99 0.66 1.98 1 3 C0.0479279 4.00596297 -0.91187346 5.00461563 -1.875 6 C-2.40867187 6.556875 -2.94234375 7.11375 -3.4921875 7.6875 C-5 9 -5 9 -7 9 C-7.66 10.32 -8.32 11.64 -9 13 C-9.99 13 -10.98 13 -12 13 C-8.19524578 8.43969176 -4.25030379 4.14910608 0 0 Z " fill="#0DB5DD" transform="translate(492,760)"/>
<path d="M0 0 C2.90804598 3.54022989 2.90804598 3.54022989 3.375 5.875 C4.37055756 9.25989569 6.67541231 11.37738825 9 14 C6 14 6 14 4.39453125 12.71484375 C1.37320604 9.32051543 0.06997115 7.73469711 -0.375 3.0625 C-0.25125 2.051875 -0.1275 1.04125 0 0 Z " fill="#FCCF1C" transform="translate(759,728)"/>
<path d="M0 0 C0.33 0.99 0.66 1.98 1 3 C-2.3 5.97 -5.6 8.94 -9 12 C-9.66 11.67 -10.32 11.34 -11 11 C-7.37 7.37 -3.74 3.74 0 0 Z " fill="#FC8D22" transform="translate(938,312)"/>
<path d="M0 0 C1.32 0.66 2.64 1.32 4 2 C3.2575 2.4125 2.515 2.825 1.75 3.25 C-1.05084308 4.89266462 -1.05084308 4.89266462 -3.1875 7.1875 C-4.0846875 8.0846875 -4.0846875 8.0846875 -5 9 C-5.66 9 -6.32 9 -7 9 C-5.44499019 5.18315774 -2.96404505 2.80804268 0 0 Z " fill="#0BB0D9" transform="translate(504,748)"/>
<path d="M0 0 C0.33 0 0.66 0 1 0 C1 1.65 1 3.3 1 5 C1.66 5 2.32 5 3 5 C2.34 8.63 1.68 12.26 1 16 C0.67 16 0.34 16 0 16 C0 10.72 0 5.44 0 0 Z " fill="#FA4645" transform="translate(525,139)"/>
<path d="M0 0 C0.66 0.99 1.32 1.98 2 3 C0.35 5.97 -1.3 8.94 -3 12 C-3.66 12 -4.32 12 -5 12 C-3.68938409 7.76570244 -2.05643741 3.92592596 0 0 Z " fill="#FB52A9" transform="translate(722,212)"/>
<path d="M0 0 C0.66 0 1.32 0 2 0 C0.54955729 4.10958767 -1.51110752 7.43258745 -4 11 C-4.33 10.34 -4.66 9.68 -5 9 C-4.00390625 6.8359375 -4.00390625 6.8359375 -2.5625 4.375 C-2.08941406 3.55773437 -1.61632812 2.74046875 -1.12890625 1.8984375 C-0.75636719 1.27195313 -0.38382813 0.64546875 0 0 Z " fill="#FDD4D3" transform="translate(719,173)"/>
<path d="M0 0 C1.78580669 2.67871003 2.3430455 3.99677943 3 7 C3.33 7.99 3.66 8.98 4 10 C3.01 10 2.02 10 1 10 C-0.80411967 7.24075815 -1.0127245 6.11027897 -0.625 2.75 C-0.41875 1.8425 -0.2125 0.935 0 0 Z " fill="#FD9026" transform="translate(756,497)"/>
<path d="M0 0 C2.31 1.98 4.62 3.96 7 6 C6.34 6.66 5.68 7.32 5 8 C3.02 5.69 1.04 3.38 -1 1 C-0.67 0.67 -0.34 0.34 0 0 Z " fill="#FDCF16" transform="translate(929,903)"/>
<path d="M0 0 C1.4540625 0.0309375 1.4540625 0.0309375 2.9375 0.0625 C2.9375 0.7225 2.9375 1.3825 2.9375 2.0625 C0.6275 2.7225 -1.6825 3.3825 -4.0625 4.0625 C-4.0625 0.08290816 -4.0625 0.08290816 0 0 Z " fill="#51DC6B" transform="translate(744.0625,746.9375)"/>
<path d="M0 0 C0.33 0.99 0.66 1.98 1 3 C-1.97 5.475 -1.97 5.475 -5 8 C-5 5 -5 5 -2.5 2.3125 C-1.675 1.549375 -0.85 0.78625 0 0 Z " fill="#FC49AA" transform="translate(758,469)"/>
<path d="M0 0 C0.99 0.33 1.98 0.66 3 1 C1.68 3.64 0.36 6.28 -1 9 C-1.66 9 -2.32 9 -3 9 C-2.01 6.03 -1.02 3.06 0 0 Z " fill="#6F2CF0" transform="translate(196,403)"/>
<path d="M0 0 C0.33 0.99 0.66 1.98 1 3 C-1.3125 5.0625 -1.3125 5.0625 -4 7 C-4.99 6.67 -5.98 6.34 -7 6 C-4.69 4.02 -2.38 2.04 0 0 Z " fill="#FB4BA4" transform="translate(661,327)"/>
<path d="M0 0 C0.33 0.66 0.66 1.32 1 2 C-0.65 3.98 -2.3 5.96 -4 8 C-4.33 7.01 -4.66 6.02 -5 5 C-3.35 3.35 -1.7 1.7 0 0 Z " fill="#FC8F29" transform="translate(781,471)"/>
<path d="M0 0 C0.66 0.99 1.32 1.98 2 3 C1.01 4.98 0.02 6.96 -1 9 C-1.66 8.67 -2.32 8.34 -3 8 C-1.125 2.25 -1.125 2.25 0 0 Z " fill="#FB3130" transform="translate(701,202)"/>
</svg>
